<svg id="visual" viewBox="0 0 900 675" width="900" height="675" xmlns="http://www.w3.org/2000/svg" xmlns:xlink="http://www.w3.org/1999/xlink" version="1.1"><path d="M0 217L16.7 228.3C33.3 239.7 66.7 262.3 100 280.3C133.3 298.3 166.7 311.7 200 310.5C233.3 309.3 266.7 293.7 300 272.3C333.3 251 366.7 224 400 221.7C433.3 219.3 466.7 241.7 500 257.3C533.3 273 566.7 282 600 272C633.3 262 666.7 233 700 238.7C733.3 244.3 766.7 284.7 800 285.7C833.3 286.7 866.7 248.3 883.3 229.2L900 210L900 0L883.3 0C866.7 0 833.3 0 800 0C766.7 0 733.3 0 700 0C666.7 0 633.3 0 600 0C566.7 0 533.3 0 500 0C466.7 0 433.3 0 400 0C366.7 0 333.3 0 300 0C266.7 0 233.3 0 200 0C166.7 0 133.3 0 100 0C66.7 0 33.3 0 16.7 0L0 0Z" fill="#1abc9c"></path><path d="M0 487L16.7 497.2C33.3 507.3 66.7 527.7 100 530C133.3 532.3 166.7 516.7 200 511C233.3 505.3 266.7 509.7 300 505C333.3 500.3 366.7 486.7 400 486.7C433.3 486.7 466.7 500.3 500 512.8C533.3 525.3 566.7 536.7 600 532.2C633.3 527.7 666.7 507.3 700 507.3C733.3 507.3 766.7 527.7 800 537.8C833.3 548 866.7 548 883.3 548L900 548L900 208L883.3 227.2C866.7 246.3 833.3 284.7 800 283.7C766.7 282.7 733.3 242.3 700 236.7C666.7 231 633.3 260 600 270C566.7 280 533.3 271 500 255.3C466.7 239.7 433.3 217.3 400 219.7C366.7 222 333.3 249 300 270.3C266.7 291.7 233.3 307.3 200 308.5C166.7 309.7 133.3 296.3 100 278.3C66.7 260.3 33.3 237.7 16.7 226.3L0 215Z" fill="#18ae90"></path><path d="M0 676L16.7 676C33.3 676 66.7 676 100 676C133.3 676 166.7 676 200 676C233.3 676 266.7 676 300 676C333.3 676 366.7 676 400 676C433.3 676 466.7 676 500 676C533.3 676 566.7 676 600 676C633.3 676 666.7 676 700 676C733.3 676 766.7 676 800 676C833.3 676 866.7 676 883.3 676L900 676L900 546L883.3 546C866.7 546 833.3 546 800 535.8C766.7 525.7 733.3 505.3 700 505.3C666.7 505.3 633.3 525.7 600 530.2C566.7 534.7 533.3 523.3 500 510.8C466.7 498.3 433.3 484.7 400 484.7C366.7 484.7 333.3 498.3 300 503C266.7 507.7 233.3 503.3 200 509C166.7 514.7 133.3 530.3 100 528C66.7 525.7 33.3 505.3 16.7 495.2L0 485Z" fill="#16a085"></path></svg>