<svg id="visual" viewBox="0 0 900 600" width="900" height="600" xmlns="http://www.w3.org/2000/svg" xmlns:xlink="http://www.w3.org/1999/xlink" version="1.1"><rect x="0" y="0" width="900" height="600" fill="#ffffff"></rect><defs><linearGradient id="grad1_0" x1="33.3%" y1="0%" x2="100%" y2="100%"><stop offset="20%" stop-color="#ffffff" stop-opacity="1"></stop><stop offset="80%" stop-color="#ffffff" stop-opacity="1"></stop></linearGradient></defs><defs><linearGradient id="grad2_0" x1="0%" y1="0%" x2="66.7%" y2="100%"><stop offset="20%" stop-color="#ffffff" stop-opacity="1"></stop><stop offset="80%" stop-color="#ffffff" stop-opacity="1"></stop></linearGradient></defs><g transform="translate(900, 0)"><path d="M0 351.5C-28.5 334.6 -57 317.7 -81 302.3C-105 287 -124.4 273.3 -153.5 265.9C-182.6 258.5 -221.4 257.3 -236.9 236.9C-252.4 216.4 -244.5 176.7 -261.5 151C-278.6 125.3 -320.4 113.8 -339.6 91C-358.7 68.2 -355.1 34.1 -351.5 0L0 0Z" fill="#16a085"></path></g><g transform="translate(0, 600)"><path d="M0 -351.5C33 -354.2 66 -356.8 91 -339.6C115.9 -322.3 132.8 -285.2 151.5 -262.4C170.2 -239.6 190.6 -231.2 221.3 -221.3C252.1 -211.5 293.2 -200.3 303.1 -175C313 -149.7 291.7 -110.4 294.6 -78.9C297.5 -47.4 324.5 -23.7 351.5 0L0 0Z" fill="#16a085"></path></g></svg>